<svg xmlns="http://www.w3.org/2000/svg" viewBox="0 0 333.34 149.29"><defs><style>.cls-1{fill:#3491fa;}.cls-2,.cls-5{fill:#fff;}.cls-2,.cls-6,.cls-7{stroke:#3491fa;}.cls-2,.cls-4,.cls-6{stroke-miterlimit:10;}.cls-2{stroke-width:8px;}.cls-3,.cls-4,.cls-6,.cls-7{fill:none;stroke-linecap:round;stroke-width:5px;}.cls-3,.cls-4{stroke:#fff;}.cls-3,.cls-7{stroke-linejoin:round;}</style></defs><g id="图层_2" data-name="图层 2"><g id="图层_1-2" data-name="图层 1"><path class="cls-1" d="M333.34,74.64q0,4.14-.39,8.15a78.5,78.5,0,0,1-19.05,44.63c-12,13.51-28.61,21.86-46.94,21.86H166.18V119.74h0V0H267c34.65,0,63.1,29.85,66.11,68C333.26,70.15,333.34,72.38,333.34,74.64Z"/><path class="cls-2" d="M162.19,4V145.29H66.82c-17.35,0-33.06-7.9-44.42-20.7a74.19,74.19,0,0,1-17.91-41c-.24-2.21-.4-4.45-.46-6.72q0-1.11,0-2.22C4,35.62,32.12,4,66.82,4Z"/><path class="cls-1" d="M166.62,73.05v46.7c-1.09-.68-2.11-1.37-3.05-2.06a52.68,52.68,0,0,1-6-5.22c-2.23,1.07-11.24,2.73-21.1.22a29.51,29.51,0,0,1-10.21-4.83,30.65,30.65,0,0,1-5.09-4.73c-13.74,3.22-28.67-5.85-33.69-17.5a23,23,0,0,1-1.78-9.07c0-.45,0-.9,0-1.34a32.17,32.17,0,0,1,7.78-18.94,28.9,28.9,0,0,1,4.12-14.79,29.13,29.13,0,0,1,15.58-12,38.62,38.62,0,0,1,10.69-2.11c.63-1.16,6.5-9.58,16.87-11.57a21.77,21.77,0,0,1,4.18-.39,27.62,27.62,0,0,1,14.29,4.24,31.07,31.07,0,0,1,7.42-3.7v57.1Z"/><polyline class="cls-3" points="106.81 73.05 88.38 73.05 106.81 73.05"/><polyline class="cls-4" points="124.93 73.05 166.62 73.05 124.93 73.05"/><path class="cls-4" d="M106.24,73.05a10.73,10.73,0,0,1-1.45-5.39,11.14,11.14,0,0,1,22.27,0,10.64,10.64,0,0,1-1.46,5.39"/><path class="cls-5" d="M240.41,71.64c0,.86,0,1.72-.09,2.59a43.53,43.53,0,0,1-10.56,24.6c0,.88-.71,13.2-11.33,19.41a23.7,23.7,0,0,1-17.8,2.21c-.1,9.72-.13,16-.14,19.76a.89.89,0,0,1-1.66.44L196.07,136a46.11,46.11,0,0,0-4.22-5.72,26.11,26.11,0,0,0-4.3-4.29,49.69,49.69,0,0,1-14.41-4c-.66-.3-1.3-.6-1.92-.91-1.55-.77-3-1.58-4.31-2.41V15a28.41,28.41,0,0,1,4.53-1.19,29.12,29.12,0,0,1,9.85-.08,32.59,32.59,0,0,1,13,5.36,31.89,31.89,0,0,1,6.16,5.4c8.76-1.2,17.33,2.12,22.29,8.77a26.35,26.35,0,0,1,4.9,15.11c0,.52,0,.93-.05,1.22a25.3,25.3,0,0,1,10,10A25.71,25.71,0,0,1,240.41,71.64Z"/><polyline class="cls-6" points="203.87 72.29 166.91 72.29 203.87 72.29"/><polyline class="cls-7" points="220.76 72.29 237.76 72.29 220.76 72.29"/><path class="cls-6" d="M203.89,72.29a9.4,9.4,0,0,0-1.29,4.76,9.84,9.84,0,0,0,19.68,0A9.39,9.39,0,0,0,221,72.29"/><path class="cls-1" d="M166.72,30.59a13.44,13.44,0,0,1,6.59-1.74,13.11,13.11,0,1,1,.07,26.21,13.47,13.47,0,0,1-6.6-1.69Z"/></g></g></svg>